<svg xmlns="http://www.w3.org/2000/svg" width="1200" height="383.456" fill="none"><ellipse cx="447.193" cy="32.26" fill="#F8D24E" rx="5.858" ry="6.244"/><ellipse cx="459.886" cy="23.935" fill="#F8D24E" rx="5.858" ry="6.244"/><ellipse cx="474.532" cy="14.569" fill="#F8D24E" rx="5.858" ry="6.244"/><ellipse cx="488.202" cy="6.244" fill="#F8D24E" rx="5.858" ry="6.244"/><ellipse cx="428.641" cy="54.114" fill="#F8D24E" rx="5.858" ry="6.244"/><ellipse cx="441.334" cy="45.789" fill="#F8D24E" rx="5.858" ry="6.244"/><ellipse cx="455.98" cy="36.423" fill="#F8D24E" rx="5.858" ry="6.244"/><ellipse cx="469.65" cy="28.098" fill="#F8D24E" rx="5.858" ry="6.244"/><ellipse cx="400.325" cy="55.155" fill="#F8D24E" rx="5.858" ry="6.244"/><ellipse cx="413.019" cy="46.829" fill="#F8D24E" rx="5.858" ry="6.244"/><ellipse cx="427.665" cy="37.463" fill="#F8D24E" rx="5.858" ry="6.244"/><ellipse cx="441.334" cy="29.138" fill="#F8D24E" rx="5.858" ry="6.244"/><ellipse cx="384.703" cy="79.089" fill="#F8D24E" rx="5.858" ry="6.244"/><ellipse cx="397.396" cy="70.764" fill="#F8D24E" rx="5.858" ry="6.244"/><ellipse cx="412.042" cy="61.398" fill="#F8D24E" rx="5.858" ry="6.244"/><ellipse cx="425.712" cy="53.073" fill="#F8D24E" rx="5.858" ry="6.244"/><ellipse cx="372.986" cy="100.943" fill="#F8D24E" rx="5.858" ry="6.244"/><ellipse cx="385.679" cy="92.618" fill="#F8D24E" rx="5.858" ry="6.244"/><ellipse cx="400.325" cy="83.252" fill="#F8D24E" rx="5.858" ry="6.244"/><ellipse cx="413.995" cy="74.927" fill="#F8D24E" rx="5.858" ry="6.244"/><ellipse fill="#F8D24E" rx="5.858" ry="6.244" transform="matrix(1 1 -.00137 .00156 364.208 122.806)"/><ellipse fill="#F8D24E" rx="5.858" ry="6.244" transform="matrix(1 1 -.00137 .00156 376.912 114.5)"/><ellipse fill="#F8D24E" rx="5.858" ry="6.244" transform="matrix(1 1 -.00137 .00156 391.571 105.157)"/><ellipse fill="#F8D24E" rx="5.858" ry="6.244" transform="matrix(1 1 -.00137 .00156 405.252 96.853)"/><ellipse fill="#F8D24E" rx="5.858" ry="6.244" transform="matrix(1 1 -.00137 .00156 240.228 160.312)"/><ellipse fill="#F8D24E" rx="5.858" ry="6.244" transform="matrix(1 1 -.00137 .00156 253.909 152.008)"/><ellipse fill="#F8D24E" rx="5.858" ry="6.244" transform="matrix(1 1 -.00137 .00156 325.151 132.172)"/><ellipse fill="#F8D24E" rx="5.858" ry="6.244" transform="matrix(1 1 -.00137 .00156 337.855 123.866)"/><ellipse fill="#F8D24E" rx="5.858" ry="6.244" transform="matrix(1 1 -.00137 .00156 352.514 114.523)"/><ellipse fill="#F8D24E" rx="5.858" ry="6.244" transform="matrix(1 1 -.00137 .00156 366.195 106.219)"/><ellipse cx="241.171" cy="141.528" fill="#F8D24E" rx="5.858" ry="6.244"/><ellipse cx="254.841" cy="133.203" fill="#F8D24E" rx="5.858" ry="6.244"/><ellipse cx="273.393" cy="123.837" fill="#F8D24E" rx="5.858" ry="6.244"/><ellipse cx="286.086" cy="115.512" fill="#F8D24E" rx="5.858" ry="6.244"/><ellipse cx="300.732" cy="106.146" fill="#F8D24E" rx="5.858" ry="6.244"/><ellipse cx="314.402" cy="97.821" fill="#F8D24E" rx="5.858" ry="6.244"/><ellipse cx="298.779" cy="136.325" fill="#F8D24E" rx="5.858" ry="6.244"/><ellipse cx="311.473" cy="128" fill="#F8D24E" rx="5.858" ry="6.244"/><ellipse cx="326.119" cy="118.634" fill="#F8D24E" rx="5.858" ry="6.244"/><ellipse cx="339.789" cy="110.309" fill="#F8D24E" rx="5.858" ry="6.244"/><ellipse cx="300.732" cy="119.675" fill="#F8D24E" rx="5.858" ry="6.244"/><ellipse cx="313.426" cy="111.35" fill="#F8D24E" rx="5.858" ry="6.244"/><ellipse cx="328.072" cy="101.984" fill="#F8D24E" rx="5.858" ry="6.244"/><ellipse cx="341.741" cy="93.658" fill="#F8D24E" rx="5.858" ry="6.244"/><ellipse cx="247.03" cy="125.919" fill="#F8D24E" rx="5.858" ry="6.244"/><ellipse cx="259.723" cy="117.594" fill="#F8D24E" rx="5.858" ry="6.244"/><ellipse cx="274.37" cy="108.228" fill="#F8D24E" rx="5.858" ry="6.244"/><ellipse cx="288.039" cy="99.902" fill="#F8D24E" rx="5.858" ry="6.244"/><ellipse cx="5.858" cy="357.984" fill="#F8D24E" rx="5.858" ry="6.244"/><ellipse cx="18.551" cy="349.658" fill="#F8D24E" rx="5.858" ry="6.244"/><ellipse cx="33.198" cy="340.293" fill="#F8D24E" rx="5.858" ry="6.244"/><ellipse cx="46.867" cy="331.968" fill="#F8D24E" rx="5.858" ry="6.244"/><ellipse cx="80.065" cy="361.106" fill="#F8D24E" rx="5.858" ry="6.244"/><ellipse cx="92.758" cy="352.781" fill="#F8D24E" rx="5.858" ry="6.244"/><ellipse cx="107.404" cy="343.415" fill="#F8D24E" rx="5.858" ry="6.244"/><ellipse cx="121.074" cy="335.089" fill="#F8D24E" rx="5.858" ry="6.244"/><ellipse cx="110.333" cy="356.943" fill="#F8D24E" rx="5.858" ry="6.244"/><ellipse cx="123.027" cy="348.618" fill="#F8D24E" rx="5.858" ry="6.244"/><ellipse cx="137.673" cy="339.252" fill="#F8D24E" rx="5.858" ry="6.244"/><ellipse cx="151.343" cy="330.927" fill="#F8D24E" rx="5.858" ry="6.244"/><ellipse cx="165.989" cy="318.439" fill="#F8D24E" rx="5.858" ry="6.244"/><ellipse cx="134.744" cy="325.724" fill="#F8D24E" rx="5.858" ry="6.244"/><ellipse cx="1024.248" cy="376.177" fill="#F8D24E" rx="5.858" ry="6.239"/><ellipse cx="1036.94" cy="367.859" fill="#F8D24E" rx="5.858" ry="6.239"/><ellipse cx="1051.586" cy="358.501" fill="#F8D24E" rx="5.858" ry="6.239"/><ellipse cx="1065.256" cy="350.182" fill="#F8D24E" rx="5.858" ry="6.239"/><ellipse cx="1057.445" cy="372.018" fill="#F8D24E" rx="5.858" ry="6.239"/><ellipse cx="1070.138" cy="363.7" fill="#F8D24E" rx="5.858" ry="6.239"/><ellipse cx="1084.784" cy="354.342" fill="#F8D24E" rx="5.858" ry="6.239"/><ellipse cx="1098.454" cy="346.023" fill="#F8D24E" rx="5.858" ry="6.239"/><ellipse cx="1085.761" cy="368.899" fill="#F8D24E" rx="5.858" ry="6.239"/><ellipse cx="1098.455" cy="360.581" fill="#F8D24E" rx="5.858" ry="6.239"/><ellipse cx="1113.101" cy="351.222" fill="#F8D24E" rx="5.858" ry="6.239"/><ellipse cx="1126.77" cy="342.904" fill="#F8D24E" rx="5.858" ry="6.239"/><ellipse cx="1113.101" cy="364.74" fill="#F8D24E" rx="5.858" ry="6.239"/><ellipse cx="1125.793" cy="356.421" fill="#F8D24E" rx="5.858" ry="6.239"/><ellipse cx="1140.439" cy="347.063" fill="#F8D24E" rx="5.858" ry="6.239"/><ellipse cx="1154.109" cy="338.745" fill="#F8D24E" rx="5.858" ry="6.239"/><ellipse cx="1121.888" cy="376.177" fill="#F8D24E" rx="5.858" ry="6.239"/><ellipse cx="1134.581" cy="367.859" fill="#F8D24E" rx="5.858" ry="6.239"/><ellipse cx="1152.156" cy="377.217" fill="#F8D24E" rx="5.858" ry="6.239"/><ellipse cx="1149.227" cy="358.501" fill="#F8D24E" rx="5.858" ry="6.239"/><ellipse cx="1166.802" cy="367.859" fill="#F8D24E" rx="5.858" ry="6.239"/><ellipse cx="1180.471" cy="377.217" fill="#F8D24E" rx="5.858" ry="6.239"/><ellipse cx="1162.896" cy="350.182" fill="#F8D24E" rx="5.858" ry="6.239"/><ellipse cx="1180.471" cy="359.541" fill="#F8D24E" rx="5.858" ry="6.239"/><ellipse cx="1194.141" cy="368.899" fill="#F8D24E" rx="5.858" ry="6.239"/><ellipse cx="964.687" cy="307.551" fill="#F8D24E" rx="5.858" ry="6.239"/><ellipse cx="977.38" cy="299.232" fill="#F8D24E" rx="5.858" ry="6.239"/><ellipse cx="992.026" cy="289.874" fill="#F8D24E" rx="5.858" ry="6.239"/><ellipse cx="1005.695" cy="281.556" fill="#F8D24E" rx="5.858" ry="6.239"/><ellipse cx="940.276" cy="306.511" fill="#F8D24E" rx="5.858" ry="6.239"/><ellipse cx="952.97" cy="298.193" fill="#F8D24E" rx="5.858" ry="6.239"/><ellipse cx="967.616" cy="288.834" fill="#F8D24E" rx="5.858" ry="6.239"/><ellipse cx="981.285" cy="280.516" fill="#F8D24E" rx="5.858" ry="6.239"/><ellipse cx="994.956" cy="376.177" fill="#F8D24E" rx="5.858" ry="6.239"/><ellipse cx="1007.648" cy="367.859" fill="#F8D24E" rx="5.858" ry="6.239"/><ellipse cx="1022.295" cy="358.501" fill="#F8D24E" rx="5.858" ry="6.239"/><ellipse cx="1035.964" cy="350.182" fill="#F8D24E" rx="5.858" ry="6.239"/><ellipse cx="979.333" cy="369.938" fill="#F8D24E" rx="5.858" ry="6.239"/><ellipse cx="992.026" cy="361.62" fill="#F8D24E" rx="5.858" ry="6.239"/><ellipse cx="1006.672" cy="352.262" fill="#F8D24E" rx="5.858" ry="6.239"/><ellipse cx="1020.341" cy="343.944" fill="#F8D24E" rx="5.858" ry="6.239"/><ellipse cx="985.191" cy="348.103" fill="#F8D24E" rx="5.858" ry="6.239"/><ellipse cx="997.885" cy="339.785" fill="#F8D24E" rx="5.858" ry="6.239"/><ellipse cx="1012.531" cy="330.426" fill="#F8D24E" rx="5.858" ry="6.239"/><ellipse cx="1026.2" cy="322.108" fill="#F8D24E" rx="5.858" ry="6.239"/><ellipse fill="#F8D24E" rx="5.867" ry="6.23" transform="matrix(.98693 .9898 .14249 -.16112 680.19 303.304)"/><ellipse fill="#F8D24E" rx="5.867" ry="6.23" transform="matrix(.98693 .9898 .14249 -.16112 691.553 293.033)"/><ellipse fill="#F8D24E" rx="5.867" ry="6.23" transform="matrix(.98693 .9898 .14249 -.16112 704.698 281.42)"/><ellipse fill="#F8D24E" rx="5.867" ry="6.23" transform="matrix(.98693 .9898 .14249 -.16112 717.026 270.992)"/><ellipse cx="985.191" cy="311.71" fill="#F8D24E" rx="5.858" ry="6.239"/><ellipse cx="997.885" cy="303.391" fill="#F8D24E" rx="5.858" ry="6.239"/><ellipse cx="1012.531" cy="294.033" fill="#F8D24E" rx="5.858" ry="6.239"/><ellipse cx="1026.2" cy="285.715" fill="#F8D24E" rx="5.858" ry="6.239"/><ellipse cx="982.262" cy="331.466" fill="#F8D24E" rx="5.858" ry="6.239"/><ellipse cx="994.956" cy="323.148" fill="#F8D24E" rx="5.858" ry="6.239"/><ellipse cx="1009.602" cy="313.789" fill="#F8D24E" rx="5.858" ry="6.239"/><ellipse cx="1023.271" cy="305.471" fill="#F8D24E" rx="5.858" ry="6.239"/><ellipse cx="920.749" cy="301.312" fill="#F8D24E" rx="5.858" ry="6.239"/><ellipse cx="933.442" cy="292.994" fill="#F8D24E" rx="5.858" ry="6.239"/><ellipse cx="948.088" cy="283.635" fill="#F8D24E" rx="5.858" ry="6.239"/><path fill="#F8D24E" fill-rule="evenodd" d="M952.97 301.312c0 3.445-2.623 6.239-5.858 6.239-3.236 0-5.859-2.794-5.859-6.239 0-3.446 2.623-6.239 5.859-6.239 3.235 0 5.858 2.793 5.858 6.239Z"/><ellipse cx="52.726" cy="360.065" fill="#F8D24E" rx="5.858" ry="6.244"/><ellipse cx="65.419" cy="351.74" fill="#F8D24E" rx="5.858" ry="6.244"/><ellipse cx="80.065" cy="342.374" fill="#F8D24E" rx="5.858" ry="6.244"/><ellipse cx="93.735" cy="334.049" fill="#F8D24E" rx="5.858" ry="6.244"/><ellipse cx="28.316" cy="359.024" fill="#F8D24E" rx="5.858" ry="6.244"/><ellipse cx="41.009" cy="350.699" fill="#F8D24E" rx="5.858" ry="6.244"/><ellipse cx="55.655" cy="341.333" fill="#F8D24E" rx="5.858" ry="6.244"/><ellipse cx="69.324" cy="333.008" fill="#F8D24E" rx="5.858" ry="6.244"/><ellipse cx="447.193" cy="56.195" fill="#F8D24E" rx="5.858" ry="6.244"/><ellipse cx="459.886" cy="47.87" fill="#F8D24E" rx="5.858" ry="6.244"/><ellipse cx="474.532" cy="38.504" fill="#F8D24E" rx="5.858" ry="6.244"/><ellipse cx="488.202" cy="30.179" fill="#F8D24E" rx="5.858" ry="6.244"/><ellipse cx="445.24" cy="98.862" fill="#F8D24E" rx="5.858" ry="6.244"/><ellipse cx="457.933" cy="90.537" fill="#F8D24E" rx="5.858" ry="6.244"/><ellipse cx="472.58" cy="81.171" fill="#F8D24E" rx="5.858" ry="6.244"/><ellipse cx="486.249" cy="72.845" fill="#F8D24E" rx="5.858" ry="6.244"/><ellipse cx="448.169" cy="77.008" fill="#F8D24E" rx="5.858" ry="6.244"/><ellipse cx="460.862" cy="68.683" fill="#F8D24E" rx="5.858" ry="6.244"/><ellipse cx="475.509" cy="59.317" fill="#F8D24E" rx="5.858" ry="6.244"/><ellipse cx="489.178" cy="50.992" fill="#F8D24E" rx="5.858" ry="6.244"/><ellipse cx="446.216" cy="119.675" fill="#F8D24E" rx="5.858" ry="6.244"/><ellipse cx="458.91" cy="111.35" fill="#F8D24E" rx="5.858" ry="6.244"/><ellipse cx="473.556" cy="101.984" fill="#F8D24E" rx="5.858" ry="6.244"/><ellipse cx="487.225" cy="93.658" fill="#F8D24E" rx="5.858" ry="6.244"/><ellipse cx="452.075" cy="134.244" fill="#F8D24E" rx="5.858" ry="6.244"/><ellipse cx="464.768" cy="125.919" fill="#F8D24E" rx="5.858" ry="6.244"/><ellipse cx="479.414" cy="116.553" fill="#F8D24E" rx="5.858" ry="6.244"/><ellipse cx="493.083" cy="108.228" fill="#F8D24E" rx="5.858" ry="6.244"/><ellipse cx="464.768" cy="145.691" fill="#F8D24E" rx="5.858" ry="6.244"/><ellipse cx="477.461" cy="137.366" fill="#F8D24E" rx="5.858" ry="6.244"/><ellipse cx="492.107" cy="128" fill="#F8D24E" rx="5.858" ry="6.244"/><ellipse cx="505.777" cy="119.675" fill="#F8D24E" rx="5.858" ry="6.244"/><ellipse cx="481.367" cy="155.057" fill="#F8D24E" rx="5.858" ry="6.244"/><ellipse cx="494.06" cy="146.732" fill="#F8D24E" rx="5.858" ry="6.244"/><ellipse cx="508.706" cy="137.365" fill="#F8D24E" rx="5.858" ry="6.244"/><ellipse cx="522.376" cy="129.041" fill="#F8D24E" rx="5.858" ry="6.244"/><ellipse cx="500.895" cy="157.138" fill="#F8D24E" rx="5.858" ry="6.244"/><ellipse cx="513.588" cy="148.813" fill="#F8D24E" rx="5.858" ry="6.244"/><ellipse cx="528.234" cy="139.447" fill="#F8D24E" rx="5.858" ry="6.244"/><ellipse cx="541.904" cy="131.122" fill="#F8D24E" rx="5.858" ry="6.244"/><ellipse cx="520.423" cy="161.301" fill="#F8D24E" rx="5.858" ry="6.244"/><ellipse cx="533.117" cy="152.975" fill="#F8D24E" rx="5.858" ry="6.244"/><ellipse cx="547.763" cy="143.61" fill="#F8D24E" rx="5.858" ry="6.244"/><ellipse cx="561.433" cy="135.285" fill="#F8D24E" rx="5.858" ry="6.244"/><ellipse cx="515.542" cy="181.073" fill="#F8D24E" rx="5.858" ry="6.244"/><ellipse cx="528.234" cy="172.748" fill="#F8D24E" rx="5.858" ry="6.244"/><ellipse cx="542.88" cy="163.382" fill="#F8D24E" rx="5.858" ry="6.244"/><ellipse cx="556.55" cy="155.057" fill="#F8D24E" rx="5.858" ry="6.244"/><ellipse cx="513.588" cy="199.805" fill="#F8D24E" rx="5.858" ry="6.244"/><ellipse cx="526.282" cy="191.48" fill="#F8D24E" rx="5.858" ry="6.244"/><ellipse cx="540.928" cy="182.114" fill="#F8D24E" rx="5.858" ry="6.244"/><ellipse cx="554.597" cy="173.789" fill="#F8D24E" rx="5.858" ry="6.244"/><ellipse cx="506.753" cy="223.74" fill="#F8D24E" rx="5.858" ry="6.244"/><ellipse cx="519.447" cy="215.415" fill="#F8D24E" rx="5.858" ry="6.244"/><ellipse cx="534.093" cy="206.049" fill="#F8D24E" rx="5.858" ry="6.244"/><ellipse cx="547.763" cy="197.724" fill="#F8D24E" rx="5.858" ry="6.244"/><ellipse cx="503.824" cy="244.553" fill="#F8D24E" rx="5.858" ry="6.244"/><ellipse cx="516.517" cy="236.228" fill="#F8D24E" rx="5.858" ry="6.244"/><ellipse cx="531.163" cy="226.862" fill="#F8D24E" rx="5.858" ry="6.244"/><ellipse cx="544.833" cy="218.536" fill="#F8D24E" rx="5.858" ry="6.244"/><ellipse cx="499.918" cy="266.406" fill="#F8D24E" rx="5.858" ry="6.244"/><ellipse cx="512.612" cy="258.081" fill="#F8D24E" rx="5.858" ry="6.244"/><ellipse cx="527.258" cy="248.716" fill="#F8D24E" rx="5.858" ry="6.244"/><ellipse cx="540.928" cy="240.39" fill="#F8D24E" rx="5.858" ry="6.244"/><ellipse cx="497.965" cy="284.098" fill="#F8D24E" rx="5.858" ry="6.244"/><ellipse cx="510.659" cy="275.772" fill="#F8D24E" rx="5.858" ry="6.244"/><ellipse cx="525.305" cy="266.406" fill="#F8D24E" rx="5.858" ry="6.244"/><ellipse cx="538.975" cy="258.081" fill="#F8D24E" rx="5.858" ry="6.244"/><ellipse cx="496.013" cy="302.829" fill="#F8D24E" rx="5.858" ry="6.244"/><ellipse cx="508.707" cy="294.504" fill="#F8D24E" rx="5.858" ry="6.244"/><ellipse cx="523.353" cy="285.138" fill="#F8D24E" rx="5.858" ry="6.244"/><ellipse cx="537.022" cy="276.813" fill="#F8D24E" rx="5.858" ry="6.244"/><ellipse cx="501.871" cy="318.439" fill="#F8D24E" rx="5.858" ry="6.244"/><ellipse cx="514.564" cy="310.114" fill="#F8D24E" rx="5.858" ry="6.244"/><ellipse cx="529.21" cy="300.748" fill="#F8D24E" rx="5.858" ry="6.244"/><ellipse cx="542.88" cy="292.423" fill="#F8D24E" rx="5.858" ry="6.244"/><ellipse cx="516.518" cy="326.764" fill="#F8D24E" rx="5.858" ry="6.244"/><ellipse cx="529.211" cy="318.439" fill="#F8D24E" rx="5.858" ry="6.244"/><ellipse cx="543.857" cy="309.073" fill="#F8D24E" rx="5.858" ry="6.244"/><ellipse cx="557.526" cy="300.748" fill="#F8D24E" rx="5.858" ry="6.244"/><ellipse cx="533.117" cy="331.967" fill="#F8D24E" rx="5.858" ry="6.244"/><ellipse cx="545.81" cy="323.642" fill="#F8D24E" rx="5.858" ry="6.244"/><ellipse cx="560.456" cy="314.276" fill="#F8D24E" rx="5.858" ry="6.244"/><ellipse cx="574.125" cy="305.951" fill="#F8D24E" rx="5.858" ry="6.244"/><ellipse cx="554.597" cy="333.008" fill="#F8D24E" rx="5.858" ry="6.244"/><ellipse cx="567.291" cy="324.683" fill="#F8D24E" rx="5.858" ry="6.244"/><ellipse cx="581.937" cy="315.317" fill="#F8D24E" rx="5.858" ry="6.244"/><ellipse cx="595.606" cy="306.992" fill="#F8D24E" rx="5.858" ry="6.244"/><ellipse cx="579.984" cy="333.008" fill="#F8D24E" rx="5.858" ry="6.244"/><ellipse cx="592.677" cy="324.683" fill="#F8D24E" rx="5.858" ry="6.244"/><ellipse cx="607.323" cy="315.317" fill="#F8D24E" rx="5.858" ry="6.244"/><ellipse cx="620.993" cy="306.992" fill="#F8D24E" rx="5.858" ry="6.244"/><ellipse cx="601.464" cy="331.967" fill="#F8D24E" rx="5.858" ry="6.244"/><ellipse cx="614.157" cy="323.642" fill="#F8D24E" rx="5.858" ry="6.244"/><ellipse cx="628.804" cy="314.276" fill="#F8D24E" rx="5.858" ry="6.244"/><ellipse cx="642.473" cy="305.951" fill="#F8D24E" rx="5.858" ry="6.244"/><ellipse cx="625.875" cy="330.927" fill="#F8D24E" rx="5.858" ry="6.244"/><ellipse cx="638.568" cy="322.602" fill="#F8D24E" rx="5.858" ry="6.244"/><ellipse cx="653.213" cy="313.236" fill="#F8D24E" rx="5.858" ry="6.244"/><ellipse cx="666.883" cy="304.911" fill="#F8D24E" rx="5.858" ry="6.244"/><ellipse cx="648.332" cy="303.87" fill="#F8D24E" rx="5.858" ry="6.244"/><ellipse cx="661.025" cy="295.545" fill="#F8D24E" rx="5.858" ry="6.244"/><ellipse cx="675.671" cy="286.179" fill="#F8D24E" rx="5.858" ry="6.244"/><ellipse cx="689.341" cy="277.854" fill="#F8D24E" rx="5.858" ry="6.244"/></svg>